<?xml version="1.0" encoding="utf-8"?>
<!-- Generator: Adobe Illustrator 25.4.1, SVG Export Plug-In . SVG Version: 6.00 Build 0)  -->
<svg version="1.0" id="Layer_1" xmlns="http://www.w3.org/2000/svg" xmlns:xlink="http://www.w3.org/1999/xlink" x="0px" y="0px"
	 viewBox="0 0 851.7 615.2" style="enable-background:new 0 0 851.7 615.2;" xml:space="preserve">
<style type="text/css">
	.st0{fill:#E81300;}
	.st1{fill:#E21001;}
	.st2{fill:#D90E04;}
	.st3{fill:#E20F00;}
	.st4{fill:#E10F01;}
</style>
<path class="st0" d="M778,142.2c0.1,0.5,0,1-0.1,1.4c-3.4,16-6.9,32-10.3,47.9c-3.2,15.1-6.5,30.2-9.7,45.3
	c-3.5,16.3-7,32.6-10.5,48.9c-2.7,12.6-5.4,25.2-8.1,37.8c-1.1,5.1-2.2,10.1-3.2,15.2c0,0.2-0.1,0.3-0.1,0.5s-0.1,0.2-0.2,0.2
	s-0.2,0-0.3-0.1c-0.2-0.4-0.5-0.8-0.7-1.3c-10.5-20.6-21-41.2-31.5-61.8c-7.4-14.5-14.6-29-22-43.5c-3.2-6.4-6.5-12.7-9.8-19.1
	c-2.2-4.4-3.9-8.9-5.3-13.6c-1.3-4.2-2.4-8.4-3.2-12.8c-0.3-1.6-0.5-3.3-0.5-5c0-1.2,0-2.3,0-3.5c-0.1-8.1,3-15.9,8.6-21.7
	c3.1-3.2,6.7-5.8,10.7-7.6c4.6-2.2,9.4-3.8,14.4-4.7c4.7-1,9.5-1.6,14.3-2c1.4-0.1,2.7-0.2,4.1-0.4c0.2,0,0.4-0.1,0.6-0.2L778,142.2
	z"/>
<path class="st1" d="M73.7,335.4c0.2-0.1,0.4-0.4,0.5-0.6c0.1-0.2,0.1-0.4,0.1-0.6c0-3.8,1.1-7.4,1.8-11.1c1.6-8,3.3-16,4.9-23.9
	c1.8-8.5,3.5-17,5.3-25.5c1.5-7.4,3.1-14.8,4.6-22.2c1.6-7.9,3.3-15.8,4.9-23.8c0-0.1,0-0.1,0-0.2c0.1-0.8,0.3-1.6,0.7-2.4
	c0.8-0.1,1.7-0.2,2.5-0.1h27.5c0.9,0,0.9,0.1,0.8,0.9c-1.6,7.9-3.2,15.8-4.8,23.7c-1.8,9-3.7,17.9-5.6,26.9
	c-1.4,7-2.7,14.1-4.1,21.1c-1,4.9-2,9.7-3,14.6c-1.2,5.6-1.9,11.3-2.3,17c-0.4,4.9-0.1,9.8,0.8,14.5c0.4,2.2,1.1,4.4,2.1,6.5
	c2.5,5.6,7.4,9.8,13.4,11.2c3.7,0.9,7.4,1.2,11.2,0.9c5.2-0.3,10.4-1.7,15.1-3.9c7.9-3.7,14.4-9.7,18.9-17.1
	c3.3-5.3,5.6-11.2,7-17.3c3.4-14.5,6.6-29,9.6-43.5c2.8-13.2,5.5-26.4,8.2-39.6c1-4.9,2.1-9.8,3.1-14.8c0-0.2,0.1-0.4,0.1-0.6
	c0-0.3,0.3-0.6,0.7-0.5h1c8.4,0,16.8,0,25.2,0c1.9,0,1.8,0,1.4,1.7c-1.3,6-2.6,12-3.9,18c-2,9.1-4,18.3-5.9,27.4
	c-2.5,11.5-5,23-7.5,34.6c-1.9,8.7-3.9,17.3-5.8,26c-0.2,1.1-0.6,2.2-1,3.2c-0.7,1.6-1.3,3.1-2,4.7c-1.5,3.5-3.5,6.8-5.8,9.8
	c-1.9,2.4-3.6,4.8-5.6,7.1c-8.9,10.3-20.7,17.8-33.8,21.4c-4.9,1.4-9.9,2.3-14.9,2.9c-0.8,0.1-1.7,0.2-2.5,0.3
	c-1.8,0.3-3.7,0.4-5.5,0.3c-3.4,0-6.8-0.1-10.2,0c-3.1,0-6.1-0.3-9.2-0.8c-4-0.7-8-1.6-11.9-2.7c-7.6-2-14.2-6.7-18.6-13.2
	c-3.5-5-5.8-10.8-6.7-16.8c-0.2-0.9-0.2-1.9-0.4-2.8c-0.1-0.5-0.1-1-0.6-1.2L73.7,335.4z"/>
<path class="st2" d="M100.4,472.9c-1-0.2-2-0.4-2.9-0.7c-3.1-0.7-5.9-2.5-7.8-5.1c-0.8-1.1-1.4-2.4-1.8-3.7c-0.4-1.5-0.6-3-0.6-4.5
	c0-10.7,0-21.5,0-32.2c0-1.9-0.2-1.7,1.7-1.7h3.5c1.1,0,1.1,0,1.1,1.2c0,0.4,0,0.7,0,1.1c0,9.5,0,19,0,28.6c0,2.1,0.5,4.2,1.4,6.1
	c1.4,3.2,4.5,5.3,8,5.3c1.4,0.1,2.8-0.1,4.1-0.5c2.7-0.9,4.8-2.8,6-5.4c0.5-1,0.8-2.1,0.8-3.2c0-10.4,0-20.9,0-31.3
	c0-2.2-0.2-1.9,2-1.9h3.3c1.3,0,1.3,0,1.3,1.3v32.4c0.2,6.2-3.8,11.7-9.7,13.3c-0.8,0.3-1.6,0.4-2.5,0.6c-0.2,0-0.4,0.1-0.5,0.3
	L100.4,472.9z"/>
<path class="st2" d="M221.4,472.9c-0.1-0.1-0.2-0.2-0.4-0.2c-5.2-1-9.5-4.7-11.2-9.8c-2.4-5.9-1.9-12.5,1.3-18
	c1.9-3.6,5.2-6.3,9.2-7.3c4-1.1,8.2-0.8,12,0.9c3.8,1.6,6.6,4.9,7.5,8.9c0.5,2.5,0.7,5,0.4,7.6c0,0.5-0.2,0.6-0.7,0.6s-0.9,0-1.3,0
	H217c-0.4,0-0.8,0-1.3,0c-0.6,0-0.7,0.1-0.7,0.8c-0.1,1.4,0.1,2.8,0.5,4.1c1.1,3.8,4.3,6.5,8.1,7.2c3.2,0.6,6.4,0,9.1-1.7
	c0.5-0.3,1-1,1.6-0.8s0.9,1,1.3,1.5c0.5,0.8,1,1.6,1.5,2.4c-0.5,0.8-1.3,1.4-2.2,1.7c-1.6,0.7-3.2,1.3-4.9,1.7
	c-0.6,0.1-1.2,0.2-1.9,0.4c-0.1,0.1-0.3,0.2-0.4,0.3L221.4,472.9z M224.8,450.7h7.8c1.5,0,1.6-0.2,1.4-1.6c-0.1-0.6-0.3-1.1-0.6-1.6
	c-0.9-1.5-2.1-2.8-3.5-3.8c-0.5-0.4-1.1-0.7-1.7-0.8c-2.2-0.5-4.4-0.4-6.6,0.3c-3.4,1.2-5.1,3.7-6,7c-0.1,0.4,0.1,0.6,0.5,0.6
	L224.8,450.7L224.8,450.7z"/>
<path class="st2" d="M713.2,472.9c-0.1-0.3-0.4-0.3-0.6-0.4c-3.9-1.3-6.5-4.9-6.7-9c-0.5-4.1,1.4-8,4.8-10.2
	c2.2-1.5,4.6-2.5,7.1-2.9c2.2-0.5,4.5-0.5,6.8,0c0.4,0.1,0.7,0.2,1.1,0.2c0.2,0.1,0.5-0.1,0.5-0.3c0,0,0-0.1,0-0.1
	c0.5-2.8-0.9-5.6-3.5-6.9c-1.3-0.6-2.7-0.9-4.2-0.9c-2,0-4,0.4-5.8,1.3c-0.7,0.3-1.4,0.8-2,1.3c-0.4,0.3-0.5,0.3-0.8,0
	c-0.9-1.3-1.7-2.6-2.3-4c-0.2-0.5-0.2-0.8,0.3-1.1c0.5-0.3,1-0.7,1.5-0.9c3.7-1.8,7.8-2.5,11.9-1.8c1.8,0.3,3.5,0.7,5.2,1.3
	c1.2,0.4,2.2,1.1,2.9,2.1c2,2.6,3.1,5.7,3.2,9c0,4.9,0,9.8,0,14.8c0,1,0.2,1.9,0.5,2.8c0.3,0.9,0.9,1.7,1.7,2.2
	c0.4,0.3,0.6,0.7,0.6,1.2c0,0.8,0,1.6,0,2.4h-3.2c-0.4-0.4-1-0.4-1.4-0.6c-1.4-0.6-2.6-1.5-3.6-2.7c-0.2-0.2-0.2-0.6-0.6-0.6
	c-1.2,1.3-2.6,2.2-4.3,2.8c-1,0.4-2.1,0.7-3.2,0.9c-0.3,0-0.6,0.1-0.9,0.3L713.2,472.9z M726,459.6L726,459.6c0-1.2,0-2.4,0-3.7
	c0-0.5-0.1-0.6-0.7-0.7c-1.1-0.1-2.2-0.2-3.3-0.2c-2.2-0.1-4.4,0.5-6.4,1.6c-2.6,1.3-4,4.2-3.4,7c0.1,1.8,1.4,3.3,3.2,3.7
	c2.5,0.7,5.1,0.4,7.3-1c1-0.7,1.9-1.4,2.8-2.2c0.4-0.3,0.6-0.8,0.6-1.2C726,461.9,726,460.7,726,459.6z"/>
<path class="st2" d="M346.6,472.9c-0.1-0.3-0.4-0.3-0.6-0.4c-5.6-2.2-8.3-8.5-6.1-14.1c0.6-1.6,1.7-3.1,3-4.2c1.8-1.5,4-2.7,6.3-3.3
	c1.5-0.4,3-0.7,4.5-0.9c1.6-0.1,3.2,0.1,4.7,0.5c0.3,0,0.6,0.1,0.9,0.2c0.3,0.1,0.5-0.1,0.6-0.4c0,0,0,0,0-0.1
	c0.4-2.8-1-5.4-3.5-6.8c-0.8-0.4-1.7-0.7-2.6-0.8c-3.3-0.6-6.6,0.2-9.2,2.3c-0.2,0.1-0.3,0.3-0.5,0.4l-0.1,0.1
	c-0.5-0.2-1-0.7-1.2-1.2c-0.6-1-1.2-2.1-1.6-3.2c-0.2-0.3-0.1-0.6,0.2-0.8c0,0,0,0,0,0c0.3-0.2,0.6-0.4,0.9-0.6
	c4.9-2.8,10.7-3.3,16.1-1.6c1.1,0.3,2.1,0.8,3,1.4c1.7,1,2.9,2.7,3.4,4.6c0.1,0.4,0.2,0.7,0.3,1.1c0.7,1.7,1,3.5,0.9,5.2
	c0,4.2,0,8.4,0,12.5c0,1.4,0.3,2.8,0.7,4.2c0.2,0.9,0.7,1.7,1.4,2.2c0.5,0.3,0.7,0.9,0.7,1.5c-0.1,0.7-0.1,1.5,0.1,2.2H366
	c-0.1-0.1-0.3-0.1-0.4-0.2c-2.2-0.4-4.1-1.8-5.2-3.9c-1.4,1.4-3.1,2.5-5,3c-1,0.3-1.9,0.5-2.9,0.8c-0.3,0-0.5,0.1-0.7,0.3
	L346.6,472.9z M359.6,455.6c0,0-0.1-0.1-0.2-0.1c-2.3-0.6-4.6-0.6-6.9-0.1c-1.4,0.3-2.8,0.9-4,1.7c-2.3,1.7-3.3,4.6-2.6,7.3
	c0.3,1.4,1.4,2.6,2.8,3c1.2,0.4,2.4,0.5,3.6,0.3c2.6-0.3,5.1-1.6,6.9-3.6c0.4-0.4,0.6-0.9,0.5-1.4c0-2.2,0-4.3,0-6.5
	C359.7,456,359.6,455.8,359.6,455.6L359.6,455.6z"/>
<path class="st2" d="M499.4,472.9c-0.1-0.1-0.2-0.2-0.4-0.2c-4.7-0.9-8.6-4.3-10.3-8.8c-2.2-5.3-2.4-11.2-0.5-16.6
	c0.7-2.2,2-4.2,3.6-5.9c2.5-2.6,6-4.2,9.6-4.3c2-0.2,3.9,0,5.8,0.4c4.1,0.9,7.5,3.8,9.2,7.6c0.8,1.7,1.3,3.6,1.6,5.5
	c0.6,3.7,0.4,7.4-0.5,11c-0.4,1.8-1.1,3.4-2.1,5c-1.7,2.8-4.4,4.9-7.6,5.9c-0.5,0.1-1.1,0-1.4,0.5L499.4,472.9z M493.8,455.5
	c0.1,1.1,0.1,2,0.2,2.8c0.1,1.6,0.5,3.1,1.2,4.6c1,2.5,3.4,4.2,6,4.5c0.8,0.1,1.6,0.1,2.4,0c2.5-0.2,4.8-1.6,6.1-3.8
	c0.5-0.8,0.9-1.7,1.2-2.6c1.1-3.7,1.2-7.5,0.4-11.3c-0.3-1.3-0.7-2.5-1.4-3.7c-0.9-1.7-2.6-3-4.5-3.5c-4.1-1-7.9,0.1-10,4.5
	c-0.2,0.5-0.4,1-0.6,1.5C494.1,450.8,493.8,453.2,493.8,455.5L493.8,455.5z"/>
<path class="st2" d="M685.5,472.9c-0.1-0.2-0.3-0.2-0.5-0.3c-6.3-1.6-10.2-5.7-12.1-11.9c-0.3-1.1-0.5-2.2-0.5-3.3c0-1.3,0-2.7,0-4
	c0-3.2,1-6.4,2.7-9.2c1.7-2.8,4.3-4.9,7.4-6c6.2-2.4,12-1.5,17.6,1.8c0.5,0.3,0.6,0.5,0.2,1c-0.7,1.1-1.4,2.1-2.1,3.2
	c-0.1,0.3-0.4,0.4-0.7,0.3c0,0-0.1,0-0.1,0c-0.7-0.4-1.3-0.7-2-1c-2.8-1.3-6-1.6-9-0.8c-2.5,0.6-4.5,2.2-5.7,4.4
	c-0.8,1.4-1.3,3-1.6,4.6c-0.4,2.6-0.4,5.3,0.2,7.9c0.2,1.1,0.7,2.1,1.2,3.1c1.4,2.6,4,4.4,6.9,4.8c2.3,0.4,4.6,0.1,6.7-0.8
	c1.4-0.6,2.8-1.3,4-2.1c0.4,0.1,0.5,0.4,0.6,0.7c0.6,1.1,1.2,2.3,1.7,3.4c0.4,0.8,0.4,0.9-0.5,1.4c-0.6,0.3-1.3,0.7-2,0.9
	c-1.8,0.7-3.7,1.2-5.7,1.6c-0.2,0-0.5,0-0.7,0.3H685.5z"/>
<path class="st2" d="M194.1,472.9c-0.1-0.5-0.6-0.4-0.9-0.5c-2.4-1-4.3-2.8-5.5-5.1c-0.7-1.4-1-2.9-1-4.4c0-6.1,0-12.2,0-18.3
	c0-0.5,0-1,0-1.4s-0.1-0.7-0.8-0.7c-0.9,0-1.7,0-2.5,0c-0.6,0-0.7-0.1-0.7-0.6c0-1.2,0-2.3,0-3.5c0-0.5,0.1-0.7,0.6-0.7
	c0.9,0,1.8,0,2.7,0c0.5,0,0.7-0.1,0.7-0.6c0-1.6,0-3.3,0-4.9c0-0.4,0-0.9,0-1.3c0-0.2,0.1-0.4,0.3-0.5c1.7-0.8,3.5-1.4,5.4-2
	c0.3-0.1,0.5,0.1,0.5,0.4c0,1,0,1.9,0,2.9c0,1.8,0,3.5,0,5.2c0,0.6,0.1,0.8,0.7,0.8h8.1c0.5,0,0.7,0.1,0.7,0.6c0.1,1.3,0,2.6-0.1,4
	c-1.2,0.5-2.5,0.1-3.7,0.2c-1.6,0.1-3.3,0-4.9,0c-0.6,0-0.7,0.1-0.8,0.7c0,0.3,0,0.6,0,1c0,5.5,0,10.9,0,16.4c0,1.8,0.6,3.6,1.6,5.1
	c1.1,1.7,3.1,2.5,5,2c1.4-0.2,2.9-0.7,4.3-1c0.4,0.3,0.3,0.8,0.4,1.2c0.2,1.2,0.5,2.4,0.7,3.6c0.1,0.5-0.1,0.7-0.5,0.8
	c-0.9,0.2-1.8,0.3-2.7,0.4c-1.1,0.1-2.3,0.2-3.5,0.4L194.1,472.9z"/>
<path class="st3" d="M571.6,379.8c-0.1-0.2-0.1-0.5,0-0.8c13.9-65.3,27.8-130.6,41.8-195.9c0-0.1,0.2-0.1,0.3-0.2
	c0.3,0.5,0.5,0.9,0.8,1.4c8.6,17,17.3,33.9,25.9,50.9c9.2,18.2,18.4,36.3,27.5,54.5c3.1,6.1,6.1,12.3,9.3,18.4
	c1.8,3.4,3.3,7,4.5,10.6c1.8,4.8,3.2,9.8,4.1,14.8c1,5.2,1.1,10.4,0.2,15.6c-1.2,7.5-5.3,14.2-11.4,18.8c-4,3-8.5,5.3-13.2,6.8
	c-5.5,1.9-11.1,3.2-16.8,3.9c-2.9,0.4-5.9,0.8-8.8,1.1c-0.8,0.1-1.7,0.1-2.5,0.1H573C572.5,380,572,379.9,571.6,379.8z"/>
<path class="st1" d="M263.7,225.2c0.5-0.2,1-0.3,1.5-0.2c21.5,0,43.1,0,64.6,0c2.2,0.1,4.3,0.3,6.5,0.8c4.1,0.7,8.1,2,11.9,3.7
	c2.8,1.3,5.4,3,7.6,5.1c3.8,3.5,6.3,8.1,7.2,13.1c2.5,13.4-0.9,24.9-10.8,34.5c-3.5,3.3-7.4,6.1-11.7,8.4c-3.5,1.9-7.2,3.4-10.9,4.7
	l-0.9,0.3c-0.1,0-0.1,0.1-0.2,0.3c1.7,0.3,3.3,0.6,5,1c4,0.9,7.8,2.4,11.2,4.5c4.2,2.4,7.6,5.8,10,10c1.6,2.9,2.6,6.2,2.9,9.5
	c0.4,5.9-0.2,11.8-1.8,17.4c-3.5,12.8-11,22.6-22.1,29.8c-6.3,4.1-13.3,7.1-20.6,8.9c-3.8,1-7.7,1.5-11.5,2.2
	c-3.3,0.5-6.7,0.8-10,0.7c-19.4,0-38.8,0-58.3,0c-0.6,0.1-1.3,0-1.9-0.1c0-0.2,0-0.4,0-0.7C242.3,327.8,253,276.5,263.7,225.2z
	 M266.7,360.7c0.6,0.2,1.2,0.2,1.8,0.2c7.5,0,14.9,0,22.4,0c2.6,0,5.3-0.4,7.8-1.2c5.9-1.9,11.4-4.9,16.2-8.8c3.5-2.8,6.5-6,9-9.7
	c1.4-2,2.4-4.4,2.9-6.8c0.1-0.7,0.2-1.4,0.3-2c0.4-2.9,0.4-5.9-0.2-8.9c-0.7-3.9-2.6-7.6-5.4-10.4c-1.6-1.6-3.4-2.9-5.3-4
	c-2.9-1.6-6.1-2.8-9.3-3.4c-3.8-0.8-7.7-1.2-11.6-1.1c-5,0.2-10,0.3-15.1,0.4h-1c-0.4,0-0.8,0.3-0.9,0.7c-0.1,0.2-0.1,0.4-0.1,0.6
	c-1.8,8.7-3.6,17.4-5.4,26.1c-1.7,8-3.3,16-5,23.9C267.3,357.7,267,359.2,266.7,360.7z M293,293.1c3.3,0,6.6,0,9.8,0
	c0.8,0,1.7-0.2,2.5-0.5c0.4-0.2,0.9-0.4,1.3-0.6c3.8-1.9,7.4-4,11.1-6.2c4.5-2.7,8.2-6.6,10.6-11.3c1-1.8,1.7-3.8,2-5.8
	c0.3-2.5,0.8-4.9,1.2-7.4c0.1-0.5,0.1-1.1,0.1-1.6c-0.2-2.9-1.3-5.8-3.2-8c-1.7-1.9-3.7-3.4-6-4.4c-3.7-1.8-7.9-2.6-12-2.5
	l-18.6,0.4c-0.3,0-0.5,0-0.8,0c-0.5,0-0.9,0.4-1,0.9c-0.1,0.6-0.2,1.1-0.3,1.7c-0.5,4.8-1.4,9.6-2.3,14.4c-0.2,0.9-0.4,1.9-0.6,2.8
	c-0.7,3.7-1.3,7.4-2.1,11.1c-1,4.5-1.8,9.1-2.7,13.7c-0.2,0.8-0.3,1.7-0.4,2.5c-0.1,0.5,0.1,0.6,0.6,0.6c0.4,0,0.7,0,1.1,0
	L293,293.1z"/>
<path class="st4" d="M364.9,379.4c0.1-0.5,0.4-1.1,0.8-1.5c4.7-7,9.4-13.9,14.1-20.9L464,232.7c1.5-2.2,3.1-4.5,4.5-6.7
	c0.4-0.7,1.2-1.2,2.1-1.1c2.8,0.1,5.6,0,8.4,0c1.4,0,1.3,0,1.6,1.2c0.7,2.7,1.3,5.5,2,8.2l9.2,38.4c3.2,13.3,6.5,26.6,9.7,39.9
	c3.1,12.8,6.2,25.7,9.4,38.5c2.2,8.9,4.3,17.8,6.5,26.7c0.1,0.4,0.2,0.8,0.3,1.2c0,0.2-0.1,0.3-0.2,0.3c0,0,0,0,0,0
	c-0.5,0-1,0-1.4,0h-31.1c-0.9,0-0.9,0-1.1-1l-2.6-12.9c-1-5.2-2.1-10.4-3.1-15.5c-0.2-0.9-0.2-0.9-1-0.9h-62.6
	c-2.2,0-1.6-0.3-2.9,1.6c-6,9.1-12,18.2-18,27.3c-1.2,1.8-0.7,1.5-2.8,1.5h-24.5L364.9,379.4z M449.4,326.4H470c0.5,0,1,0,1.4,0
	c0.2,0,0.4-0.2,0.4-0.4c0,0,0-0.1,0-0.1c-0.1-0.4-0.1-0.7-0.2-1.1c-1.6-6.8-3.3-13.6-4.9-20.3L460,277c-0.1-0.2,0-0.6-0.4-0.6
	c-0.1,0-0.3,0.2-0.4,0.4s-0.3,0.4-0.4,0.7L427.7,325c-0.2,0.3-0.4,0.6-0.6,0.9c-0.1,0.2,0,0.3,0.1,0.4c0,0,0.1,0,0.1,0
	c0.5,0,1,0,1.4,0L449.4,326.4z"/>
<path class="st2" d="M304.1,448.3v-22.4c0-1.5-0.1-1.5,1.5-1.5c3.3,0,6.7,0,10,0c2.7-0.1,5.4,0.3,8,1.1c1,0.3,1.9,0.7,2.7,1.2
	c2.8,1.6,4.6,4.5,4.8,7.8c0.1,1.3,0.1,2.5-0.2,3.8c-0.6,2.2-1.9,4.2-3.8,5.5c-0.8,0.6-1.6,1-2.4,1.6c-0.1,0.1-0.2,0.2-0.3,0.4
	c0,0.2,0.2,0.3,0.4,0.4c0.5,0.1,0.9,0.2,1.4,0.4c4.1,1.4,7.1,4.9,7.7,9.2c0.3,1.6,0.3,3.2-0.1,4.7c-0.2,0.7-0.3,1.3-0.4,2
	c-0.3,1.6-1,3-2.2,4.2c-2.8,2.9-6.5,4.8-10.5,5.5c-0.5,0.1-0.9,0.1-1.4,0.1h-13.8c-0.3,0-0.6,0-0.9,0c-0.3,0-0.5-0.2-0.5-0.5
	c0,0,0,0,0-0.1c0-0.5,0-1,0-1.4L304.1,448.3z M310.9,457.6v3.3c0,1.6,0,3.3,0,4.9c0,0.6,0.1,0.7,0.7,0.8c2.4,0.2,4.9,0.2,7.3-0.1
	c0.9-0.1,1.8-0.3,2.6-0.6c2.8-0.8,4.8-3.2,5.1-6.1c0.3-1.5,0.3-3.1,0-4.6c-0.3-2.8-2.3-5-5-5.8c-1.2-0.4-2.5-0.6-3.7-0.6
	c-2.2,0-4.3,0-6.5,0c0,0-0.1,0-0.2,0s-0.3,0.1-0.3,0.3c0,0.4-0.1,0.7-0.1,1.1C310.9,452.7,310.9,455.1,310.9,457.6z M310.9,437
	L310.9,437v1.8c0,1.4,0,2.7,0,4.1c0,0.8,0.1,0.9,0.8,0.9c1.6,0,3.3,0,4.9-0.1c1.1,0,2.2-0.3,3.3-0.6c2.4-0.6,4.2-2.7,4.4-5.2
	c0.1-0.8,0.1-1.6,0-2.4c-0.1-2.2-1.7-4-3.8-4.6c-0.8-0.3-1.5-0.4-2.3-0.5c-2.2-0.1-4.4-0.1-6.6-0.1c-0.5,0-0.6,0.1-0.6,0.7
	C310.9,433,310.9,435,310.9,437L310.9,437z"/>
<path class="st2" d="M268.8,438.9v-13.7c0-0.4,0-0.9,0-1.3c0-0.3,0.2-0.5,0.4-0.5c0,0,0,0,0.1,0h5.1c0.2,0,0.4,0.2,0.4,0.4
	c0,0,0,0,0,0c0,0.3,0,0.6,0,1v46.1c0,1.5,0.1,1.4-1.5,1.4h-4c-0.4,0-0.6-0.2-0.6-0.6c0-0.4,0-0.7-0.1-1.1c0-0.2-0.2-0.3-0.4-0.3
	c0,0-0.1,0-0.1,0c-0.2,0.1-0.5,0.2-0.7,0.4c-1.8,1-3.8,1.7-5.8,1.9c-2,0.2-4,0.1-6-0.3c-3.5-0.8-6.5-2.9-8.2-6
	c-1.3-2.1-2.1-4.5-2.4-7c-0.8-5,0.2-10,2.7-14.4c0.9-1.6,2-3,3.3-4.2c3.2-3.1,7.8-4.4,12.2-3.5c1.7,0.2,3.4,0.8,5,1.6
	C268.3,438.9,268.5,438.9,268.8,438.9z M268.5,455.3c0-2.9,0-5.8,0-8.7c0-0.6-0.2-1.2-0.6-1.7c-0.8-0.9-1.8-1.6-3-2
	c-3.2-1-6.7-0.3-9.2,1.9c-1.4,1.2-2.4,2.7-3,4.4c-1.4,3.7-1.5,7.9-0.3,11.7c0.4,1.4,1.1,2.6,2.1,3.7c2.5,2.5,5.6,3.1,8.9,2.7
	c1.4-0.2,2.8-0.7,3.9-1.6c0.8-0.5,1.2-1.3,1.2-2.2C268.5,460.8,268.5,458.1,268.5,455.3z"/>
<path class="st2" d="M601.4,472.3h-6.7c-0.4,0-0.7-0.2-0.8-0.6c-0.3-0.9-0.5-1.7-0.8-2.6c-0.7-2-1.5-4.1-2.2-6.1
	c-0.1-0.4-0.5-0.7-0.9-0.7h-15.7c-0.4,0-0.7,0.2-0.9,0.5c-0.2,0.4-0.3,0.8-0.5,1.2c-0.9,2.2-1.8,4.5-2.5,6.8
	c-0.1,0.2-0.2,0.5-0.2,0.8c-0.1,0.4-0.5,0.7-0.9,0.7c-2.1,0-4.2,0-6.4,0c-0.1-0.5,0-1,0.3-1.4c2.2-5.5,4.3-11,6.5-16.5l11.5-28.9
	c0-0.1,0.1-0.2,0.1-0.3c0.2-0.7,0.9-1.2,1.6-1.1c0.1,0,0.2,0.1,0.3,0.1c0.1,0,0.3,0.1,0.3,0.3c0.2,0.3,0.3,0.7,0.4,1l16.9,45.2
	L601.4,472.3z M588.4,457.1l0.1-0.1c0,0,0-0.1,0-0.2c0-0.2-0.1-0.4-0.2-0.6c-1.9-6-3.8-12-5.7-18c0-0.1,0-0.1-0.1-0.1
	c0,0-0.1,0-0.2,0c-0.1,0.1-0.2,0.2-0.2,0.3l-6.4,17.9c-0.1,0.1-0.1,0.3-0.1,0.5c0,0.1,0,0.3,0.2,0.3c0.3,0,0.5,0,0.8,0h11
	C587.9,457.2,588.2,457.2,588.4,457.1L588.4,457.1z"/>
<path class="st2" d="M418,452.8c0.4-0.2,0.8-0.5,1-0.9c3.7-4.4,7.3-8.7,11-13.1c0.2-0.2,0.4-0.5,0.6-0.7c0.2-0.2,0.4-0.3,0.7-0.4
	c0.5,0,5.9,0,6.7,0.1c-0.1,0.4-0.4,0.7-0.7,1l-8.9,10.8c-1.1,1.4-1,1-0.1,2.4c3.8,6.2,7.6,12.4,11.5,18.6c0.3,0.4,0.5,0.9,0.8,1.3
	c-0.2,0.4-0.5,0.3-0.7,0.3c-1.7,0-3.4,0-5.1,0c-0.5,0-1-0.2-1.3-0.7c-1.3-2.1-2.6-4.2-3.9-6.3l-5.5-8.8c-0.2-0.4-0.5-0.8-0.8-1.2
	c-0.4,0-0.5,0.2-0.7,0.4c-1.3,1.4-2.6,2.8-4,4.1c-0.5,0.4-0.7,1-0.7,1.7c0,3.1,0,6.2,0,9.4c0,1.5,0,1.4-1.5,1.4h-3.3
	c-1.6,0-1.5,0.1-1.5-1.6v-45.4c0-2.1-0.2-1.9,1.8-1.9c1.3,0,2.5,0,3.8,0c0.5,0,0.7,0.1,0.7,0.7s0,0.9,0,1.3L418,452.8L418,452.8z"/>
<path class="st2" d="M381.5,472.3h-5.3c-0.3,0-0.5-0.2-0.5-0.4c0,0,0,0,0-0.1c0-0.4,0-0.7,0-1.1v-31.4c0-1.6-0.1-1.6,1.5-1.6
	c0.7,0,1.4,0,2.1,0c0.4-0.1,0.9,0.2,1,0.6c0.4,0.9,0.8,1.7,1.1,2.6c0.1,0.2,0.2,0.4,0.4,0.6c0.2-0.2,0.4-0.3,0.5-0.4
	c2.5-2.8,6.1-4.3,9.8-4c1.2,0,2.3,0.2,3.5,0.3c1,0.1,2,0.6,2.7,1.2c2.8,2.1,4.6,5.4,4.8,8.9c0,0.4,0,0.8,0,1.3c0,7.3,0,14.5,0,21.8
	c0,0.4,0,0.7,0,1.1c0,0.5-0.1,0.7-0.6,0.7h-4.8c-0.5,0-0.7-0.1-0.7-0.6s0-0.8,0-1.3v-20.2c0-1.2-0.1-2.3-0.4-3.5
	c-0.7-2.4-2.8-4.2-5.3-4.4c-1.8-0.3-3.7,0-5.4,0.8c-1,0.5-1.9,1-2.7,1.6c-0.9,0.6-1.5,1.7-1.4,2.8c0,7.6,0,15.2,0,22.9
	C381.8,471.1,381.7,471.7,381.5,472.3z"/>
<path class="st2" d="M135.6,441.5c0.3-0.3,0.4-0.4,0.5-0.5c3.1-3.5,7-4.4,11.5-3.9c0.2,0,0.4,0.1,0.6,0.1c2.9,0.1,4.7,1.9,6.4,4
	c0.2,0.3,0.4,0.6,0.5,1c0.3,0.6,0.5,1.2,0.7,1.8c0.7,1.7,1,3.6,1,5.4c-0.1,7,0,14,0,21c0,0.4,0,0.8,0,1.3c0,0.7-0.1,0.7-0.8,0.7
	c-1.5,0-3.1,0-4.6,0c-0.5,0-0.6-0.1-0.7-0.7s0-0.8,0-1.3c0-6.5,0-13,0-19.5c0-1.7-0.3-3.4-1-4.9c-0.7-2.1-2.6-3.5-4.8-3.5
	c-3.9-0.4-6.8,1.2-9.1,4.1c-0.2,0.2-0.3,0.6-0.3,0.9v23c0,0.5,0,1,0,1.4c0,0.3-0.1,0.5-0.5,0.5h-5.1c-0.3,0-0.5-0.2-0.5-0.5
	c0-0.3,0-0.7,0-1.1c0-10.4,0-20.9,0-31.3v-1.1c0-0.4,0.2-0.5,0.6-0.5c1,0,2,0,3,0c0.4,0,0.8,0.2,0.9,0.7
	C134.6,439.4,135.1,440.4,135.6,441.5z"/>
<path class="st2" d="M473.8,472.3h-5.4c-0.5,0-0.6-0.2-0.6-0.7s0-0.8,0-1.3v-26.2c0-1.5,0-1.4-1.4-1.4c-0.9,0-1.8,0-2.7,0
	s-0.9-0.1-0.9-0.8c0-1.3,0-2.5,0-3.8c0-0.3,0.2-0.5,0.4-0.5c0,0,0,0,0.1,0h3.5c1,0,0.9-0.2,1-0.9c0.1-1.3,0.2-2.6,0.5-3.9
	c0.5-2.4,1.6-4.6,3.3-6.4c2.4-2.4,5.7-3.5,9-3c1.3,0.1,2.7,0.4,4,0.7c0.5,0.1,0.6,0.3,0.5,0.8c-0.1,0.5-0.3,0.9-0.5,1.4
	c-0.2,0.8-0.5,1.6-0.9,2.4c-0.8,0.1-1.7,0-2.5-0.3c-2.9-0.5-6.1,1.8-7.1,4c-0.3,0.6-0.4,1.2-0.4,1.9c-0.1,1-0.1,2.1,0.2,3.1
	c0.9,0.1,1.9,0.2,2.8,0.1c1.2,0,2.4,0,3.6,0c0.3,0,0.5,0.2,0.6,0.5c0,0,0,0.1,0,0.1c0,0.1,0,0.2,0,0.3c0,1.3,0,2.6-0.1,4
	c-1.3,0.4-2.6,0.1-3.9,0.2c-0.8,0-1.7,0-2.5,0c-0.6,0-0.7,0.1-0.7,0.8c0,0.4,0,0.8,0,1.3L473.8,472.3L473.8,472.3z"/>
<path class="st2" d="M626.1,424.5c-0.5,1.4-1,2.7-1.6,4c-0.1,0.4-0.5,0.6-0.9,0.5c0,0,0,0,0,0c-0.6-0.1-1.1-0.2-1.7-0.3
	c-2.3-0.5-4.7,0.4-6,2.4c-1.4,1.8-1.9,4.2-1.2,6.4c0.4,0.2,0.8,0.3,1.3,0.2h5.1c0.3,0,0.6,0.2,0.6,0.5c0,0,0,0.1,0,0.1v0.1
	c-0.1,1.4,0.2,2.8-0.2,4.2c-1.3,0.1-2.6,0.2-3.9,0.1c-0.7,0-1.5,0-2.2,0c-0.4,0-0.6,0.1-0.6,0.5s0,1,0,1.4v25.6c0,0.5,0,1,0,1.4
	s-0.2,0.5-0.6,0.5h-5c-0.2,0-0.5-0.1-0.5-0.4c0,0,0-0.1,0-0.1c0-0.5,0-1,0-1.4v-25.8c0-2,0.2-1.8-1.8-1.8c-0.9,0-1.8,0-2.7,0
	c-0.2,0-0.5-0.1-0.5-0.4c0,0,0-0.1,0-0.1c0-1.3,0-2.6,0-4c0-0.3,0.2-0.5,0.4-0.6c0,0,0.1,0,0.1,0h2.7c2,0,1.7,0.1,1.8-1.6
	c0.1-2,0.5-3.9,1.2-5.7c1.9-4.5,5.4-6.7,10.1-6.9c0.8,0,1.6,0.1,2.4,0.3C623.6,423.9,624.9,424.1,626.1,424.5z"/>
<path class="st2" d="M637.3,441.8c0.3,0,0.4-0.3,0.5-0.5c1.8-2.5,4.7-4.1,7.8-4.2c1.8-0.1,3.7,0,5.5,0.4c0.3,0.3,0.1,0.5,0,0.8
	c-0.6,1.5-1.1,3.1-1.7,4.6c-0.2,0.6-0.4,0.7-0.9,0.5l-2.3-0.7c-1.3-0.4-2.7-0.3-3.9,0.3c-2.3,1.1-4.2,3-5.1,5.4
	c-0.3,0.9-0.4,1.8-0.4,2.7c0,6.4,0,12.8,0,19.2v1.1c0,1,0,1-1.1,1.1c-1.5,0-3.1,0-4.6,0c-0.5,0-0.6-0.2-0.7-0.7c0-0.4,0-0.7,0-1.1
	v-31c0-0.4,0-0.7,0-1.1c0-0.6,0.1-0.7,0.8-0.7h4.8c0.7,0,0.8,0.1,0.8,0.9s0,1.6,0.1,2.4C637,441.2,637,441.6,637.3,441.8z"/>
<path class="st2" d="M531.5,437.9c0.2,1.3,0.1,2.6,0.4,4.2c0.4-0.4,0.7-0.8,1-1.2c0.3-0.4,0.6-0.7,1-1.1c0.3-0.3,0.7-0.6,1.1-0.9
	c0.4-0.3,0.8-0.5,1.2-0.7c0.4-0.2,0.9-0.4,1.3-0.5c0.5-0.2,1-0.3,1.5-0.4c0.5-0.1,0.9-0.2,1.4-0.2c0.5,0,1,0,1.4,0
	c0.5,0,0.9,0.1,1.4,0.2c0.5,0.1,0.9,0.2,1.4,0.3c0.5,0.1,0.9,0.2,1.3,0.5c0.2,0.3-0.1,0.6-0.2,0.9c-0.5,1.4-1.1,2.7-1.7,4.1
	c-0.1,0.3-0.4,0.5-0.7,0.4c0,0-0.1,0-0.1,0l-2.6-0.8c-0.9-0.3-1.9-0.3-2.8,0c-4,1.1-6.6,4.8-6.4,8.9c0,6.3,0,12.7,0,19
	c0,0.4,0,0.8,0,1.3s-0.1,0.5-0.5,0.5h-5.3c-0.3,0-0.5-0.2-0.5-0.4c0,0,0,0,0-0.1c0-0.4,0-0.7,0-1.1v-31.4c0-1.7-0.1-1.6,1.5-1.6h3.7
	C530.9,437.6,531.2,437.7,531.5,437.9z"/>
<path class="st2" d="M175,455.1v15.2c0,0.4,0,0.8,0,1.3s-0.2,0.6-0.7,0.6h-4.9c-0.6,0-0.7-0.1-0.7-0.6s0-0.8,0-1.3v-25.9
	c0-2,0.2-1.8-1.8-1.8h-2.4c-0.3,0-0.5-0.2-0.6-0.4c0-0.1,0-0.1,0-0.2c0-1.3,0-2.6,0-4c0-0.2,0.2-0.5,0.4-0.5c0,0,0.1,0,0.1,0h0.5h9
	h0.6c0.2,0,0.4,0.2,0.4,0.4c0,0.4,0,0.9,0,1.3L175,455.1z"/>
<path class="st2" d="M664.9,455.1v15.4c0,0.4,0,0.8,0,1.3s-0.1,0.5-0.5,0.5c-1.7,0-3.4,0-5.1,0c-0.3,0-0.5-0.2-0.5-0.5
	c0-0.5,0-1,0-1.4V444c0-1.3,0-1.2-1.2-1.2c-0.9,0-1.8,0-2.7,0c-0.7,0-0.8-0.1-0.8-0.7c0-1.2,0-2.4,0-3.6c0-0.6,0.2-0.7,0.8-0.7h9.4
	c0.3,0,0.5,0.2,0.6,0.4c0,0,0,0.1,0,0.1c0,0.4,0,0.9,0,1.3L664.9,455.1z"/>
<path class="st2" d="M176,428.2c-0.1,2.2-1.9,4-4.1,4c-2.1-0.1-3.8-1.8-3.7-3.9c0-2.1,1.7-3.7,3.8-3.7c0,0,0,0,0,0
	C174.3,424.7,176,426.1,176,428.2z"/>
<path class="st2" d="M658.5,428.5c0-0.6,0.1-1.3,0.3-1.9c0.3-0.8,0.9-1.3,1.7-1.6c1.1-0.4,2.3-0.4,3.4,0c1.1,0.4,1.8,1.3,2,2.4
	c0.1,0.8,0.1,1.6-0.1,2.4c-0.7,1.9-2.8,2.9-4.7,2.3c-0.4-0.1-0.8-0.4-1.1-0.6C659,430.7,658.5,429.6,658.5,428.5z"/>
</svg>
